<svg xmlns="http://www.w3.org/2000/svg" width="16" height="16" viewBox="0 0 16 16" fill="none"><path d="M14.9572 2.23927C14.9285 2.03298 14.78 1.86329 14.5794 1.80751L8.14871 0.0191373C8.05703 -0.00637908 7.96019 -0.00637908 7.86845 0.0191373L1.43777 1.80751C1.23713 1.86329 1.0887 2.03291 1.05998 2.23927C1.02268 2.50747 0.171783 8.84444 2.35427 11.9969C4.53417 15.1456 7.75 15.9525 7.88581 15.9853C7.92617 15.9951 7.9673 15.9999 8.00858 15.9999C8.04985 15.9999 8.09098 15.995 8.13135 15.9853C8.26723 15.9525 11.4831 15.1456 13.6629 11.9969C15.8454 8.84451 14.9945 2.50754 14.9572 2.23927ZM12.1555 5.93886L7.76917 10.3252C7.6671 10.4273 7.53325 10.4784 7.39946 10.4784C7.26568 10.4784 7.13182 10.4274 7.02975 10.3252L4.3177 7.61318C4.21961 7.51515 4.16453 7.38213 4.16453 7.24347C4.16453 7.1048 4.21968 6.97178 4.3177 6.87376L4.85619 6.33527C5.06039 6.13114 5.39148 6.13107 5.59561 6.33527L7.39946 8.13912L10.8776 4.66088C10.9757 4.56279 11.1087 4.50771 11.2473 4.50771C11.386 4.50771 11.519 4.56279 11.617 4.66088L12.1555 5.19937C12.3597 5.40357 12.3597 5.73466 12.1555 5.93886Z" fill="#B9D328"></path></svg>