<svg id="レイヤー_1" data-name="レイヤー 1" xmlns="http://www.w3.org/2000/svg" viewBox="0 0 566.93 566.93"><defs><style>.cls-1{fill:#4fb993;}.cls-2{fill:#152c88;}</style></defs><title>logo_oc_square_color</title><circle class="cls-1" cx="439.73" cy="235.75" r="56.69"/><circle class="cls-2" cx="439.73" cy="235.75" r="28.35"/><path class="cls-2" d="M156.26,349.14A113.39,113.39,0,1,1,269.65,235.75,113.51,113.51,0,0,1,156.26,349.14Zm0-198.43a85,85,0,1,0,85,85A85.14,85.14,0,0,0,156.26,150.71Z"/><path class="cls-2" d="M326.34,320.79c0,15.66-28.35,56.69-28.35,56.69s-28.34-41-28.34-56.69a28.35,28.35,0,0,1,56.69,0Z"/><circle class="cls-1" cx="156.26" cy="235.75" r="56.69"/><path class="cls-2" d="M370.34,118.22c-5.54,5.53-28.66,19.67-34.19,14.14s8.61-28.65,14.14-34.19a14.18,14.18,0,1,1,20,20Z"/><path class="cls-2" d="M245.7,98.17c5.53,5.54,19.67,28.65,14.14,34.19s-28.65-8.61-34.19-14.14a14.18,14.18,0,0,1,20-20Z"/><path class="cls-2" d="M314.43,82.42c0,9.08-7.36,54.12-16.44,54.12s-16.44-45-16.44-54.12a16.44,16.44,0,0,1,32.88,0Z"/><path class="cls-2" d="M439.73,349.09A113.36,113.36,0,1,1,519.9,155.58a14.17,14.17,0,1,1-20,20,85,85,0,1,0,0,120.26,14.17,14.17,0,0,1,20,20.05A113,113,0,0,1,439.73,349.09Z"/><path class="cls-2" d="M70,420.52c25,0,40.75,17,40.75,40,0,23.36-16.2,40.4-41.11,40.4s-40.75-17-40.75-40C28.89,437.56,45.1,420.52,70,420.52Zm-.12,64.34c13.35,0,21.81-8.82,21.81-24.07S83.11,436.6,69.76,436.6,48,445.42,48,460.67,56.54,484.86,69.88,484.86Z"/><path class="cls-2" d="M153.17,490.1c-2.14,6.56-4.41,10-12.27,10s-9.54-3.45-11.44-10.6L114,432.67a18.19,18.19,0,0,1-.84-4.89c0-3.57,2-6.19,9.42-6.19s9.41,2.5,10.84,8.82L143.28,474l12.87-41.35c1.55-5,3-8.46,10.49-8.46s9.17,3.34,10.72,8.46L190,473.9l10.13-43.38c1.43-6.43,3.1-8.93,10.25-8.93,6.79,0,9.41,2.14,9.41,6a19.34,19.34,0,0,1-.83,4.88l-16.09,57.08c-2,7.39-3.69,10.6-11.68,10.6s-10.72-3.21-12.75-9.77L165.92,451.5Z"/><path class="cls-2" d="M265.41,482.6c3.22,0,5.37,0,7.27,1.31s2.86,3.45,2.86,7.15-1.07,5.72-2.86,7-4.05,1.31-7.27,1.31H236.1c-6.55,0-8.82-2.5-8.82-8.82V431.84c0-3.34,0-5.6,1.43-7.51s3.94-2.74,8-2.74,6.55.83,8,2.74,1.43,4.17,1.43,7.51V482.6Z"/><path class="cls-2" d="M313.43,483.67a23.65,23.65,0,0,0,9.06-1.79c3.57-1.43,5.84-3.1,8.34-3.1,4.89,0,7.51,5.84,7.51,9.42,0,3-1.91,5.48-5.36,7.62-5.49,3.34-13.59,4.89-20.62,4.89-21.8,0-39-14.66-39-40,0-26.69,18.82-39.92,39.32-39.92,7.5,0,15.37,1.79,20.26,4.77,3.69,2.26,5.36,4.77,5.36,7.74,0,3.7-2.51,9.54-7.51,9.54-2.62,0-5.12-1.55-8.94-3.1a24.59,24.59,0,0,0-9.41-1.91c-10.49,0-20,6.8-20,22.52C292.46,476.52,302.47,483.67,313.43,483.67Z"/><path class="cls-2" d="M384,420.52c25,0,40.75,17,40.75,40,0,23.36-16.2,40.4-41.11,40.4s-40.75-17-40.75-40C342.86,437.56,359.07,420.52,384,420.52Zm-.12,64.34c13.35,0,21.81-8.82,21.81-24.07s-8.58-24.19-21.93-24.19-21.8,8.82-21.8,24.07S370.51,484.86,383.85,484.86Z"/><path class="cls-2" d="M453.68,489.75c0,3.33,0,5.6-1.43,7.5s-3.94,2.74-8,2.74-6.55-.83-8-2.74-1.43-4.17-1.43-7.5V431.84c0-3.34,0-5.6,1.43-7.51s3.93-2.74,8-2.74,6.56.83,8,2.74,1.43,4.17,1.43,7.51Z"/><path class="cls-2" d="M484.77,489.75c0,3.33,0,5.48-1.43,7.38s-3.69,2.86-7.62,2.86-6.32-1.07-7.75-2.86-1.43-4.17-1.43-7.38V428.86c0-4.53,3.22-7.39,9.89-7.39,6.91,0,9.54,3,12.63,7l30.75,40.27V431.84c0-3.34,0-5.49,1.43-7.39s3.69-2.86,7.62-2.86,6.32,1.07,7.75,2.86,1.43,4.05,1.43,7.39v61c0,5-3.22,7.51-8.7,7.51-5.72,0-8.46-2.62-11.68-6.79L484.77,451.5Z"/></svg>